<!-- <svg width="24" height="24" xmlns="http://www.w3.org/2000/svg">
  <path d="M20 12.5V5c0-.2708-.099-.5052-.2969-.7031C19.5052 4.0989 19.2708 4 19 4h-7.5c-.4375 0-.7448.2031-.9219.6094-.177.427-.1041.7916.2188 1.0937l2.25 2.25L4.703 16.297c-.1979.1979-.2969.4323-.2969.7031 0 .2708.099.5052.297.7031l1.5937 1.5938c.1979.1979.4323.2968.7031.2968.2708 0 .5052-.099.7031-.2968l8.3438-8.3438 2.25 2.25c.1875.198.4218.2969.7031.2969.125 0 .2552-.026.3906-.0781.4063-.1771.6094-.4844.6094-.9219zm4-8v15c0 1.2396-.4401 2.2995-1.3203 3.1797C21.7995 23.5599 20.7396 24 19.5 24h-15c-1.2396 0-2.2995-.4401-3.1797-1.3203C.4401 21.7995 0 20.7396 0 19.5v-15c0-1.2396.4401-2.2995 1.3203-3.1797C2.2005.4401 3.2604 0 4.5 0h15c1.2396 0 2.2995.4401 3.1797 1.3203C23.5599 2.2005 24 3.2604 24 4.5z" fill="#000" fill-rule="nonzero"/>
</svg> -->

<svg xmlns="http://www.w3.org/2000/svg" viewBox="0 0 24 24" class="icon-external-window">
  <path class="primary" d="M12 8a1 1 0 01-1 1H5v10h10v-6a1 1 0 012 0v6a2 2 0 01-2 2H5a2 2 0 01-2-2V9c0-1.1.9-2 2-2h6a1 1 0 011 1z"/>
  <path class="secondary" d="M19 6.41L8.7 16.71a1 1 0 11-1.4-1.42L17.58 5H14a1 1 0 010-2h6a1 1 0 011 1v6a1 1 0 01-2 0V6.41z"/>
</svg>